<svg width="859" height="1093" viewBox="0 0 859 1093" fill="none" xmlns="http://www.w3.org/2000/svg">
<mask id="path-1-inside-1_41_101" fill="white">
<path fill-rule="evenodd" clip-rule="evenodd" d="M830.144 0H831H838C840.243 0 842.314 0.738787 843.983 1.98635C848.636 4.23176 851.51 8.48692 853.175 11.9235C855.48 16.681 856.884 22.6169 857.705 28.8967C859.087 39.4707 859.029 52.7472 857.5 67.1225V86.5V115.5C857.5 124.167 856.418 141.158 854.205 156.077C853.106 163.487 851.657 170.888 849.749 176.632C848.817 179.437 847.574 182.477 845.827 185.011C844.312 187.206 840.671 191.5 834.5 191.5C830.482 191.5 826.114 190.398 822.596 187.02C819.34 183.894 818.026 179.951 817.392 176.881C817.332 176.59 817.276 176.296 817.224 176H816V170.378V150.7C816 119.896 792.051 95.5768 763.298 95.5768H763.158L763.019 95.5729L670.721 92.9961C665.2 92.842 660.85 88.2416 661.004 82.7209C661.158 77.2002 665.758 72.8498 671.279 73.0039L763.443 75.577C801.48 75.653 832.158 105.708 835.666 143.466C836.901 132.332 837.5 121.404 837.5 115.5V86.5V73.206L836.602 73.0768C836.945 70.6901 837.244 68.3415 837.5 66.0385V63H837.816C839.012 50.6207 838.948 39.7073 837.874 31.4894C837.185 26.2256 836.157 22.669 835.176 20.6429C835.048 20.3796 834.935 20.1679 834.839 20H831.856L818.199 22.3546L817.356 22.5H816.5H786.752L727.504 25.4873L727.252 25.5H727H587.5C586.406 25.5 585.354 25.3245 584.369 25H460.25C458.455 25 457 26.4551 457 28.25V34.875C457 40.3979 452.523 44.875 447 44.875C441.477 44.875 437 40.3979 437 34.875V28.25C437 15.4094 447.409 5 460.25 5H607V5.5H726.748L785.996 2.51269L786.248 2.5H786.5H815.644L829.301 0.145399L830.144 0ZM835.231 20C835.561 20.1613 836.004 20.3158 836.577 20.3982L836.634 20H835.231ZM213.363 139.852C149.979 184.686 112 245.695 112 312C112 388.496 162.637 458.062 244.37 503.638L235.299 519.905L235.301 519.915L235.293 519.916L234.63 521.105C234.368 520.96 234.107 520.813 233.846 520.667C233.581 520.519 233.316 520.37 233.052 520.221C112.877 537.136 20 642.748 20 770.852C20 910.664 130.588 1023.63 266.605 1023.85L307.873 1020.56L341.027 1015.68L381.175 1005.4L410.162 995.738L412.053 912.155L374.243 918.847L373.728 918.938L373.206 918.975L318 922.883V923L317.765 923C317.627 923 317.488 922.999 317.35 922.999C317.028 922.998 316.706 922.996 316.384 922.993C316.275 922.997 316.167 922.999 316.058 923L315.987 923C315.96 923 315.932 923 315.905 923C315.86 923 315.816 922.999 315.771 922.998C315.631 922.995 315.492 922.989 315.353 922.98C228.917 921.682 157.817 856.922 157.232 775.359C152.518 751.071 160.357 724.643 175.568 700.981C191.084 676.844 214.86 654.582 243.571 638.703C301.252 606.802 379.796 600.284 452.177 657.136L452.013 657.345C454.995 659.076 457 662.304 457 666V849V1032C457 1053.6 439.642 1070.74 418.379 1071.93L418.38 1071.95L407.665 1073H639.271L623.697 1072C601.775 1071.87 583.228 1058.08 576.602 1038.73C574.985 1036.95 574 1034.59 574 1032V1023V849V631C574 627.978 575.34 625.269 577.459 623.436L577.259 623.186C639.035 573.849 702.153 562.251 759.924 551.636L759.925 551.636L759.926 551.635C771.349 549.537 782.562 547.476 793.515 545.17C759.079 504.349 718.836 468.075 648.185 470.502C637.628 470.865 625.661 471.69 612.433 472.602C561.769 476.095 492.59 480.865 413.14 465.826L413.149 465.776C367.373 457.748 327.095 440.958 297.63 418.084C266.756 394.115 247 362.769 247 327.535C247 285.87 274.531 249.757 315.627 224.584C356.446 199.581 412.047 184.332 473 184.005V184L473.196 184L473.538 184C473.686 184.001 473.834 184.001 473.982 184.001C474.321 184 474.661 184 475 184V184.006C540.186 184.381 598.933 203.084 637.279 232.959C641.124 234.777 643.52 238.936 642.905 243.372L624.214 378.272L642.482 365.224L642.348 364.937L642.721 364.763C642.895 364.682 643.069 364.6 643.243 364.518C643.473 364.41 643.703 364.302 643.932 364.194C644.756 363.64 645.635 363.226 646.54 362.945C712.221 331.142 751 284.314 751 234.514C751 190.457 720.758 148.793 668.04 117.599C615.704 86.631 542.815 67.12 461.749 67.0005C364.322 67.1438 276.559 95.1498 213.363 139.852ZM594 1023V849V635.475C650.019 592.391 705.269 582.188 760.724 571.947C777.779 568.798 794.854 565.645 811.976 561.53C814.102 561.477 816.228 560.747 818.009 559.306C822.302 555.831 822.965 549.535 819.49 545.242C782.122 499.074 735.684 447.484 647.498 450.514C636.137 450.904 623.583 451.764 609.923 452.7L609.922 452.7C560.628 456.077 496.93 460.441 422.883 447.28L422.908 447.118C376.98 440.002 337.572 423.772 309.895 402.286C282.198 380.784 267 354.716 267 327.535C267 295.451 288.27 264.796 326.074 241.639C363.492 218.718 415.73 204.169 473.982 204.001C534.601 204.183 587.878 221.129 622.259 246.661L600.095 406.628C599.863 408.302 600.06 409.937 600.602 411.422C600.95 413.85 602.187 416.156 604.253 417.809C608.566 421.259 614.859 420.56 618.309 416.247L635.442 394.831L654.102 381.502C723.468 348.222 771 295.859 771 234.514C771 180.533 734.085 133.44 678.224 100.387C622.476 67.3991 546.23 47.2402 462.5 47.0021V47L462.127 47.0001L461.749 47.0005C461.499 47.0002 461.25 47 461 47V47.0021C360.219 47.2871 268.599 76.283 201.813 123.524C134.722 170.981 92 237.472 92 312C92 388.724 137.208 456.838 207.772 504.594C88.6732 532.169 0 641.043 0 770.852C0 921.407 119.324 1043.85 267 1043.85H267.398L267.796 1043.82L309.796 1040.47L310.126 1040.44L310.455 1040.39L344.455 1035.39L344.973 1035.32L345.481 1035.19L386.481 1024.69L386.825 1024.6L387.162 1024.49L423.162 1012.49L429.838 1010.26L429.997 1003.23L432.141 908.495C434.128 907.841 435.803 906.597 437 905V1032C437 1042.74 427.91 1052 416 1052V1052.09L387.548 1054.87C385.049 1055.12 382.623 1055.85 380.408 1057.03C362.862 1066.4 369.518 1093 389.408 1093H675.502C694.01 1093 701.42 1069.1 686.16 1058.63C683.362 1056.71 680.097 1055.58 676.71 1055.36L624.672 1052.02L624 1062.48V1052C606.997 1052 594 1038.82 594 1023ZM371.272 899.062L315.851 902.986C238.317 901.932 177.228 843.984 177.228 774.344V773.308L177.016 772.295C173.306 754.574 178.694 733.104 192.392 711.796C206.001 690.626 227.243 670.588 253.251 656.204C304.261 627.992 372.696 621.89 437 670.684V849V892.996C434.808 890.081 431.095 888.474 427.257 889.153L371.272 899.062ZM616.487 862.437V943.61C641.185 931.39 661.719 919.999 677.203 908.266C698.05 892.468 705.831 879.038 705.997 865.766L702.572 796.202C701.917 796.974 701.254 797.742 700.584 798.508C679.662 822.424 650.913 844.671 616.487 862.437ZM701.029 764.848C680.889 796.302 644.321 827.516 596.487 850V953.286V975.405C603.33 972.189 610.005 969.019 616.487 965.88C680.818 934.719 726 906.558 726 865.33L721.307 770.019L718.5 713C718.5 729.349 712.369 747.136 701.029 764.848ZM437.003 433.73C437.001 433.649 437 433.568 437 433.486V365.418V247.546C437 226.847 454.412 210.412 475.077 211.606L521.897 214.311C523.906 214.427 525.901 214.711 527.862 215.161L552.734 220.861C552.88 220.894 553.026 220.931 553.17 220.971L567.613 224.973C583.205 229.293 594 243.485 594 259.666V365.418V441C594 446.523 589.523 451 584 451H516.5H516.101L515.703 450.968L478.203 447.968L477.981 447.95L477.76 447.923L445.76 443.923C440.605 443.278 436.86 438.818 437.003 433.73ZM457 425.172L480.019 428.05L516.899 431H574V365.418V259.666C574 252.474 569.202 246.167 562.272 244.247L548.047 240.305L523.395 234.655C522.523 234.455 521.636 234.329 520.743 234.277L473.923 231.572C464.739 231.042 457 238.346 457 247.546V365.418V425.172ZM837.162 173.531C837.169 173.547 837.173 173.557 837.173 173.557C837.173 173.557 837.169 173.549 837.162 173.531Z"/>
</mask>
<path fill-rule="evenodd" clip-rule="evenodd" d="M830.144 0H831H838C840.243 0 842.314 0.738787 843.983 1.98635C848.636 4.23176 851.51 8.48692 853.175 11.9235C855.48 16.681 856.884 22.6169 857.705 28.8967C859.087 39.4707 859.029 52.7472 857.5 67.1225V86.5V115.5C857.5 124.167 856.418 141.158 854.205 156.077C853.106 163.487 851.657 170.888 849.749 176.632C848.817 179.437 847.574 182.477 845.827 185.011C844.312 187.206 840.671 191.5 834.5 191.5C830.482 191.5 826.114 190.398 822.596 187.02C819.34 183.894 818.026 179.951 817.392 176.881C817.332 176.59 817.276 176.296 817.224 176H816V170.378V150.7C816 119.896 792.051 95.5768 763.298 95.5768H763.158L763.019 95.5729L670.721 92.9961C665.2 92.842 660.85 88.2416 661.004 82.7209C661.158 77.2002 665.758 72.8498 671.279 73.0039L763.443 75.577C801.48 75.653 832.158 105.708 835.666 143.466C836.901 132.332 837.5 121.404 837.5 115.5V86.5V73.206L836.602 73.0768C836.945 70.6901 837.244 68.3415 837.5 66.0385V63H837.816C839.012 50.6207 838.948 39.7073 837.874 31.4894C837.185 26.2256 836.157 22.669 835.176 20.6429C835.048 20.3796 834.935 20.1679 834.839 20H831.856L818.199 22.3546L817.356 22.5H816.5H786.752L727.504 25.4873L727.252 25.5H727H587.5C586.406 25.5 585.354 25.3245 584.369 25H460.25C458.455 25 457 26.4551 457 28.25V34.875C457 40.3979 452.523 44.875 447 44.875C441.477 44.875 437 40.3979 437 34.875V28.25C437 15.4094 447.409 5 460.25 5H607V5.5H726.748L785.996 2.51269L786.248 2.5H786.5H815.644L829.301 0.145399L830.144 0ZM835.231 20C835.561 20.1613 836.004 20.3158 836.577 20.3982L836.634 20H835.231ZM213.363 139.852C149.979 184.686 112 245.695 112 312C112 388.496 162.637 458.062 244.37 503.638L235.299 519.905L235.301 519.915L235.293 519.916L234.63 521.105C234.368 520.96 234.107 520.813 233.846 520.667C233.581 520.519 233.316 520.37 233.052 520.221C112.877 537.136 20 642.748 20 770.852C20 910.664 130.588 1023.63 266.605 1023.85L307.873 1020.56L341.027 1015.68L381.175 1005.4L410.162 995.738L412.053 912.155L374.243 918.847L373.728 918.938L373.206 918.975L318 922.883V923L317.765 923C317.627 923 317.488 922.999 317.35 922.999C317.028 922.998 316.706 922.996 316.384 922.993C316.275 922.997 316.167 922.999 316.058 923L315.987 923C315.96 923 315.932 923 315.905 923C315.86 923 315.816 922.999 315.771 922.998C315.631 922.995 315.492 922.989 315.353 922.98C228.917 921.682 157.817 856.922 157.232 775.359C152.518 751.071 160.357 724.643 175.568 700.981C191.084 676.844 214.86 654.582 243.571 638.703C301.252 606.802 379.796 600.284 452.177 657.136L452.013 657.345C454.995 659.076 457 662.304 457 666V849V1032C457 1053.6 439.642 1070.74 418.379 1071.93L418.38 1071.95L407.665 1073H639.271L623.697 1072C601.775 1071.87 583.228 1058.08 576.602 1038.73C574.985 1036.95 574 1034.59 574 1032V1023V849V631C574 627.978 575.34 625.269 577.459 623.436L577.259 623.186C639.035 573.849 702.153 562.251 759.924 551.636L759.925 551.636L759.926 551.635C771.349 549.537 782.562 547.476 793.515 545.17C759.079 504.349 718.836 468.075 648.185 470.502C637.628 470.865 625.661 471.69 612.433 472.602C561.769 476.095 492.59 480.865 413.14 465.826L413.149 465.776C367.373 457.748 327.095 440.958 297.63 418.084C266.756 394.115 247 362.769 247 327.535C247 285.87 274.531 249.757 315.627 224.584C356.446 199.581 412.047 184.332 473 184.005V184L473.196 184L473.538 184C473.686 184.001 473.834 184.001 473.982 184.001C474.321 184 474.661 184 475 184V184.006C540.186 184.381 598.933 203.084 637.279 232.959C641.124 234.777 643.52 238.936 642.905 243.372L624.214 378.272L642.482 365.224L642.348 364.937L642.721 364.763C642.895 364.682 643.069 364.6 643.243 364.518C643.473 364.41 643.703 364.302 643.932 364.194C644.756 363.64 645.635 363.226 646.54 362.945C712.221 331.142 751 284.314 751 234.514C751 190.457 720.758 148.793 668.04 117.599C615.704 86.631 542.815 67.12 461.749 67.0005C364.322 67.1438 276.559 95.1498 213.363 139.852ZM594 1023V849V635.475C650.019 592.391 705.269 582.188 760.724 571.947C777.779 568.798 794.854 565.645 811.976 561.53C814.102 561.477 816.228 560.747 818.009 559.306C822.302 555.831 822.965 549.535 819.49 545.242C782.122 499.074 735.684 447.484 647.498 450.514C636.137 450.904 623.583 451.764 609.923 452.7L609.922 452.7C560.628 456.077 496.93 460.441 422.883 447.28L422.908 447.118C376.98 440.002 337.572 423.772 309.895 402.286C282.198 380.784 267 354.716 267 327.535C267 295.451 288.27 264.796 326.074 241.639C363.492 218.718 415.73 204.169 473.982 204.001C534.601 204.183 587.878 221.129 622.259 246.661L600.095 406.628C599.863 408.302 600.06 409.937 600.602 411.422C600.95 413.85 602.187 416.156 604.253 417.809C608.566 421.259 614.859 420.56 618.309 416.247L635.442 394.831L654.102 381.502C723.468 348.222 771 295.859 771 234.514C771 180.533 734.085 133.44 678.224 100.387C622.476 67.3991 546.23 47.2402 462.5 47.0021V47L462.127 47.0001L461.749 47.0005C461.499 47.0002 461.25 47 461 47V47.0021C360.219 47.2871 268.599 76.283 201.813 123.524C134.722 170.981 92 237.472 92 312C92 388.724 137.208 456.838 207.772 504.594C88.6732 532.169 0 641.043 0 770.852C0 921.407 119.324 1043.85 267 1043.85H267.398L267.796 1043.82L309.796 1040.47L310.126 1040.44L310.455 1040.39L344.455 1035.39L344.973 1035.32L345.481 1035.19L386.481 1024.69L386.825 1024.6L387.162 1024.49L423.162 1012.49L429.838 1010.26L429.997 1003.23L432.141 908.495C434.128 907.841 435.803 906.597 437 905V1032C437 1042.74 427.91 1052 416 1052V1052.09L387.548 1054.87C385.049 1055.12 382.623 1055.85 380.408 1057.03C362.862 1066.4 369.518 1093 389.408 1093H675.502C694.01 1093 701.42 1069.1 686.16 1058.63C683.362 1056.71 680.097 1055.58 676.71 1055.36L624.672 1052.02L624 1062.48V1052C606.997 1052 594 1038.82 594 1023ZM371.272 899.062L315.851 902.986C238.317 901.932 177.228 843.984 177.228 774.344V773.308L177.016 772.295C173.306 754.574 178.694 733.104 192.392 711.796C206.001 690.626 227.243 670.588 253.251 656.204C304.261 627.992 372.696 621.89 437 670.684V849V892.996C434.808 890.081 431.095 888.474 427.257 889.153L371.272 899.062ZM616.487 862.437V943.61C641.185 931.39 661.719 919.999 677.203 908.266C698.05 892.468 705.831 879.038 705.997 865.766L702.572 796.202C701.917 796.974 701.254 797.742 700.584 798.508C679.662 822.424 650.913 844.671 616.487 862.437ZM701.029 764.848C680.889 796.302 644.321 827.516 596.487 850V953.286V975.405C603.33 972.189 610.005 969.019 616.487 965.88C680.818 934.719 726 906.558 726 865.33L721.307 770.019L718.5 713C718.5 729.349 712.369 747.136 701.029 764.848ZM437.003 433.73C437.001 433.649 437 433.568 437 433.486V365.418V247.546C437 226.847 454.412 210.412 475.077 211.606L521.897 214.311C523.906 214.427 525.901 214.711 527.862 215.161L552.734 220.861C552.88 220.894 553.026 220.931 553.17 220.971L567.613 224.973C583.205 229.293 594 243.485 594 259.666V365.418V441C594 446.523 589.523 451 584 451H516.5H516.101L515.703 450.968L478.203 447.968L477.981 447.95L477.76 447.923L445.76 443.923C440.605 443.278 436.86 438.818 437.003 433.73ZM457 425.172L480.019 428.05L516.899 431H574V365.418V259.666C574 252.474 569.202 246.167 562.272 244.247L548.047 240.305L523.395 234.655C522.523 234.455 521.636 234.329 520.743 234.277L473.923 231.572C464.739 231.042 457 238.346 457 247.546V365.418V425.172ZM837.162 173.531C837.169 173.547 837.173 173.557 837.173 173.557C837.173 173.557 837.169 173.549 837.162 173.531Z" fill="#176B87"/>
<path d="M434.218 1021.51C384.492 1033.16 329.6 1042.82 270.775 1050.08L273.225 1069.92C332.674 1062.59 388.277 1052.81 438.78 1040.98L434.218 1021.51ZM830.144 0V-20H828.433L826.746 -19.7092L830.144 0ZM843.983 1.98635L832.005 18.0033L833.552 19.1596L835.291 19.9987L843.983 1.98635ZM853.175 11.9235L871.174 3.2041L871.174 3.20395L853.175 11.9235ZM857.705 28.8967L837.874 31.4893L837.874 31.4894L857.705 28.8967ZM857.5 67.1225L837.612 65.0078L837.5 66.0622V67.1225H857.5ZM854.205 156.077L873.989 159.012L873.989 159.012L854.205 156.077ZM849.749 176.632L868.728 182.938L868.728 182.938L849.749 176.632ZM845.827 185.011L862.29 196.367L862.29 196.367L845.827 185.011ZM822.596 187.02L836.448 172.593L836.448 172.593L822.596 187.02ZM817.392 176.881L797.805 180.921L797.805 180.923L817.392 176.881ZM817.224 176L836.921 172.53L834.008 156H817.224V176ZM816 176H796V196H816V176ZM763.158 95.5768L762.6 115.569L762.879 115.577H763.158V95.5768ZM763.019 95.5729L763.577 75.5807L763.577 75.5807L763.019 95.5729ZM670.721 92.9961L670.163 112.988L670.163 112.988L670.721 92.9961ZM661.004 82.7209L680.996 83.279L680.996 83.279L661.004 82.7209ZM671.279 73.0039L671.837 53.0117L671.837 53.0117L671.279 73.0039ZM763.443 75.577L762.884 95.5692L763.143 95.5764L763.403 95.5769L763.443 75.577ZM835.666 143.466L815.751 145.316L855.544 145.671L835.666 143.466ZM837.5 73.206H857.5V55.876L840.346 53.4096L837.5 73.206ZM836.602 73.0768L816.805 70.2301L813.959 90.0267L833.755 92.8732L836.602 73.0768ZM837.5 66.0385L857.377 68.2494L857.5 67.1474V66.0385H837.5ZM837.5 63V43H817.5V63H837.5ZM837.816 63V83H855.976L857.723 64.9241L837.816 63ZM837.874 31.4894L818.042 34.0821L818.042 34.0822L837.874 31.4894ZM835.176 20.6429L853.175 11.9234L853.175 11.9229L835.176 20.6429ZM834.839 20L852.195 10.062L846.434 0H834.839V20ZM831.856 20V0H830.144L828.458 0.290798L831.856 20ZM818.199 22.3546L821.597 42.0638L821.597 42.0638L818.199 22.3546ZM817.356 22.5V42.5H819.067L820.754 42.2092L817.356 22.5ZM786.752 22.5V2.5H786.248L785.745 2.52537L786.752 22.5ZM727.504 25.4873L726.496 5.51269L726.496 5.5127L727.504 25.4873ZM727.252 25.5V45.5H727.756L728.259 45.4746L727.252 25.5ZM584.369 25L590.626 6.00403L587.578 5H584.369V25ZM607 5H627V-15H607V5ZM607 5.5H587V25.5H607V5.5ZM726.748 5.5V25.5H727.252L727.755 25.4746L726.748 5.5ZM785.996 2.51269L787.004 22.4873L787.004 22.4873L785.996 2.51269ZM786.248 2.5V-17.5H785.744L785.241 -17.4746L786.248 2.5ZM815.644 2.5V22.5H817.356L819.042 22.2092L815.644 2.5ZM829.301 0.145399L825.903 -19.5638L825.903 -19.5638L829.301 0.145399ZM836.577 20.3982L833.73 40.1946L853.527 43.041L856.373 23.2445L836.577 20.3982ZM835.231 20V0L826.441 37.9648L835.231 20ZM836.634 20L856.43 22.8463L859.715 0H836.634V20ZM213.363 139.852L224.913 156.18L224.913 156.18L213.363 139.852ZM244.37 503.638L261.838 513.378L271.578 495.91L254.111 486.17L244.37 503.638ZM235.299 519.905L217.831 510.164L214.613 515.936L215.467 522.488L235.299 519.905ZM235.301 519.915L237.865 539.75L257.718 537.183L255.133 517.332L235.301 519.915ZM235.293 519.916L232.729 500.081L222.733 501.373L217.825 510.176L235.293 519.916ZM234.63 521.105L224.888 538.573L242.357 548.315L252.098 530.846L234.63 521.105ZM233.846 520.667L243.627 503.222L243.626 503.221L233.846 520.667ZM233.052 520.221L242.875 502.799L236.973 499.472L230.264 500.416L233.052 520.221ZM266.605 1023.85L266.573 1043.85L267.386 1043.85L268.196 1043.79L266.605 1023.85ZM307.873 1020.56L309.465 1040.49L310.126 1040.44L310.783 1040.35L307.873 1020.56ZM341.027 1015.68L343.936 1035.47L344.973 1035.32L345.988 1035.06L341.027 1015.68ZM381.175 1005.4L386.137 1024.78L386.825 1024.6L387.499 1024.37L381.175 1005.4ZM410.162 995.738L416.486 1014.71L429.838 1010.26L430.157 996.191L410.162 995.738ZM412.053 912.155L432.048 912.607L432.6 888.208L408.567 892.461L412.053 912.155ZM374.243 918.847L377.728 938.541L377.728 938.541L374.243 918.847ZM373.728 918.938L375.14 938.888L376.183 938.814L377.213 938.632L373.728 918.938ZM373.206 918.975L371.794 899.025L371.794 899.025L373.206 918.975ZM318 922.883L316.588 902.933L298 904.249V922.883H318ZM318 923L317.99 943L338 943.011V923H318ZM317.765 923L317.738 943L317.746 943L317.755 943L317.765 923ZM317.35 922.999L317.274 942.999L317.28 942.999L317.35 922.999ZM316.384 922.993L316.566 902.994L316.083 902.989L315.601 903.008L316.384 922.993ZM316.058 923L316.127 943L316.16 943L316.193 943L316.058 923ZM315.987 923V943H316.022L316.056 943L315.987 923ZM315.905 923L316.083 903.001L316.069 903.001L315.905 923ZM315.771 922.998L316.21 903.003L316.199 903.003L315.771 922.998ZM315.353 922.98L316.628 903.021L316.141 902.99L315.654 902.983L315.353 922.98ZM157.232 775.359L177.231 775.215L177.218 773.365L176.865 771.548L157.232 775.359ZM175.568 700.981L158.744 690.166L158.744 690.166L175.568 700.981ZM243.571 638.703L253.251 656.204L253.251 656.204L243.571 638.703ZM452.177 657.136L467.906 669.489L480.259 653.761L464.531 641.407L452.177 657.136ZM452.013 657.345L436.284 644.991L422.069 663.09L441.973 674.643L452.013 657.345ZM418.379 1071.93L417.255 1051.96L396.439 1053.14L398.474 1073.89L418.379 1071.93ZM418.38 1071.95L420.326 1091.86L440.238 1089.91L438.285 1070L418.38 1071.95ZM407.665 1073L405.719 1053.09L407.665 1093V1073ZM639.271 1073V1093L640.554 1053.04L639.271 1073ZM623.697 1072L624.98 1052.04L624.396 1052L623.812 1052L623.697 1072ZM576.602 1038.73L595.523 1032.25L594.181 1028.33L591.394 1025.27L576.602 1038.73ZM577.459 623.436L590.548 638.558L605.085 625.976L593.086 610.954L577.459 623.436ZM577.259 623.186L564.778 607.559L549.15 620.041L561.633 635.668L577.259 623.186ZM759.924 551.636L756.636 531.908L756.473 531.935L756.31 531.965L759.924 551.636ZM759.926 551.635L763.214 571.363L763.378 571.336L763.541 571.306L759.926 551.635ZM793.515 545.17L797.636 564.741L830.376 557.847L808.802 532.274L793.515 545.17ZM648.185 470.502L647.498 450.514L647.498 450.514L648.185 470.502ZM612.433 472.602L611.057 452.649L611.057 452.649L612.433 472.602ZM413.14 465.826L393.49 462.103L389.766 481.756L409.42 485.477L413.14 465.826ZM413.149 465.776L432.8 469.499L436.574 449.579L416.604 446.077L413.149 465.776ZM297.63 418.084L309.895 402.286L309.895 402.286L297.63 418.084ZM315.627 224.584L305.181 207.529L305.181 207.529L315.627 224.584ZM473 184.005L473.107 204.005L493 203.898V184.005H473ZM473 184L473.006 164L453 163.994V184H473ZM473.196 184L473.217 164L473.21 164L473.203 164L473.196 184ZM473.538 184L473.569 164L473.558 164L473.538 184ZM473.982 184.001L473.924 204.001L473.981 204.001L474.037 204.001L473.982 184.001ZM475 184H495V164H475V184ZM475 184.006H455V203.891L474.885 204.005L475 184.006ZM637.279 232.959L624.988 248.736L626.731 250.094L628.728 251.039L637.279 232.959ZM642.905 243.372L662.716 246.117L662.716 246.117L642.905 243.372ZM624.214 378.272L604.404 375.527L598.026 421.556L635.839 394.547L624.214 378.272ZM642.482 365.224L654.107 381.499L667.634 371.836L660.607 356.77L642.482 365.224ZM642.348 364.937L633.883 346.817L615.775 355.277L624.223 373.391L642.348 364.937ZM642.721 364.763L651.187 382.883L651.198 382.878L642.721 364.763ZM643.243 364.518L651.752 382.618L651.752 382.618L643.243 364.518ZM643.932 364.194L652.485 382.272L653.836 381.633L655.077 380.8L643.932 364.194ZM646.54 362.945L652.462 382.049L653.9 381.603L655.256 380.946L646.54 362.945ZM668.04 117.599L657.855 134.811L657.855 134.811L668.04 117.599ZM461.749 67.0005L461.779 47.0006L461.749 47.0005L461.72 47.0006L461.749 67.0005ZM594 635.475L581.807 619.622L574 625.626V635.475H594ZM760.724 571.947L757.093 552.28L757.093 552.28L760.724 571.947ZM811.976 561.53L811.473 541.537L809.359 541.59L807.303 542.084L811.976 561.53ZM818.009 559.306L830.592 574.852L830.592 574.852L818.009 559.306ZM819.49 545.242L803.944 557.825L803.944 557.825L819.49 545.242ZM647.498 450.514L648.185 470.502L648.185 470.502L647.498 450.514ZM609.923 452.7L608.556 432.747L608.244 432.768L607.933 432.799L609.923 452.7ZM609.922 452.7L611.289 472.653L611.601 472.632L611.912 472.601L609.922 452.7ZM422.883 447.28L403.119 444.216L400.122 463.548L419.383 466.971L422.883 447.28ZM422.908 447.118L442.672 450.181L445.736 430.416L425.97 427.354L422.908 447.118ZM309.895 402.286L297.63 418.084L297.63 418.084L309.895 402.286ZM326.074 241.639L336.521 258.694L336.521 258.694L326.074 241.639ZM473.982 204.001L474.041 184.002L473.983 184.001L473.924 184.002L473.982 204.001ZM622.259 246.661L642.069 249.405L643.696 237.668L634.183 230.604L622.259 246.661ZM600.095 406.628L580.284 403.883L580.284 403.883L600.095 406.628ZM600.602 411.422L620.399 408.582L620.103 406.52L619.389 404.563L600.602 411.422ZM604.253 417.809L591.759 433.426L591.759 433.426L604.253 417.809ZM618.309 416.247L633.926 428.741L633.926 428.741L618.309 416.247ZM635.442 394.831L623.817 378.556L621.558 380.169L619.824 382.337L635.442 394.831ZM654.102 381.502L645.451 363.47L643.888 364.219L642.477 365.227L654.102 381.502ZM678.224 100.387L688.409 83.1741L688.409 83.1741L678.224 100.387ZM462.5 47.0021H442.5V66.9454L462.443 67.0021L462.5 47.0021ZM462.5 47H482.5V26.993L462.493 27L462.5 47ZM462.127 47.0001L462.12 27.0001L462.113 27.0001L462.106 27.0001L462.127 47.0001ZM461.749 47.0005L461.72 67.0005L461.745 67.0005L461.77 67.0005L461.749 47.0005ZM461 47V27H441V47H461ZM461 47.0021L461.057 67.002L481 66.9456V47.0021H461ZM201.813 123.524L190.264 107.196L190.264 107.196L201.813 123.524ZM207.772 504.594L212.284 524.078L256.961 513.734L218.982 488.03L207.772 504.594ZM267.398 1043.85V1063.85H268.196L268.992 1063.79L267.398 1043.85ZM267.796 1043.82L266.204 1023.88L266.202 1023.88L267.796 1043.82ZM309.796 1040.47L308.207 1020.53L308.204 1020.53L309.796 1040.47ZM310.126 1040.44L311.715 1060.38L312.379 1060.33L313.039 1060.23L310.126 1040.44ZM310.455 1040.39L307.545 1020.61L307.543 1020.61L310.455 1040.39ZM344.455 1035.39L341.547 1015.61L341.545 1015.61L344.455 1035.39ZM344.973 1035.32L347.881 1055.1L348.919 1054.95L349.936 1054.69L344.973 1035.32ZM345.481 1035.19L340.519 1015.81L340.518 1015.81L345.481 1035.19ZM386.481 1024.69L391.443 1044.06L391.447 1044.06L386.481 1024.69ZM386.825 1024.6L391.792 1043.97L392.476 1043.8L393.146 1043.57L386.825 1024.6ZM387.162 1024.49L393.483 1043.46L393.487 1043.46L387.162 1024.49ZM423.162 1012.49L429.487 1031.46L429.487 1031.46L423.162 1012.49ZM429.838 1010.26L436.163 1029.24L449.515 1024.78L449.833 1010.71L429.838 1010.26ZM429.997 1003.23L449.992 1003.68L449.992 1003.68L429.997 1003.23ZM432.141 908.495L425.884 889.499L412.465 893.919L412.146 908.043L432.141 908.495ZM437 905H457V844.98L420.998 893.003L437 905ZM416 1052V1032H396V1052H416ZM416 1052.09L417.946 1072L436 1070.23V1052.09H416ZM387.548 1054.87L389.494 1074.78L389.494 1074.78L387.548 1054.87ZM380.408 1057.03L389.827 1074.68L389.827 1074.68L380.408 1057.03ZM686.16 1058.63L674.844 1075.12L674.844 1075.12L686.16 1058.63ZM676.71 1055.36L677.993 1035.41L677.993 1035.41L676.71 1055.36ZM624.672 1052.02L625.955 1032.06L605.996 1030.78L604.713 1050.74L624.672 1052.02ZM624 1062.48H604L643.959 1063.76L624 1062.48ZM624 1052H644V1032H624V1052ZM315.851 902.986L315.579 922.984L316.422 922.995L317.263 922.936L315.851 902.986ZM371.272 899.062L372.685 919.012L373.728 918.938L374.758 918.756L371.272 899.062ZM177.228 773.308H197.228V771.237L196.804 769.21L177.228 773.308ZM177.016 772.295L157.44 776.393L157.441 776.393L177.016 772.295ZM192.392 711.796L175.568 700.981L175.568 700.981L192.392 711.796ZM253.251 656.204L243.571 638.703L243.571 638.703L253.251 656.204ZM437 670.684H457V660.754L449.09 654.752L437 670.684ZM437 892.996L421.013 905.014L457 952.889V892.996H437ZM427.257 889.153L423.772 869.459L423.772 869.459L427.257 889.153ZM616.487 943.61H596.487V975.82L625.356 961.536L616.487 943.61ZM616.487 862.437L607.314 844.664L596.487 850.252V862.437H616.487ZM677.203 908.266L665.124 892.326L665.124 892.326L677.203 908.266ZM705.997 865.766L725.996 866.017L726.003 865.4L725.973 864.783L705.997 865.766ZM702.572 796.202L722.548 795.219L720.063 744.741L687.333 783.25L702.572 796.202ZM700.584 798.508L685.532 785.339L685.532 785.339L700.584 798.508ZM596.487 850L587.979 831.9L576.487 837.302V850H596.487ZM701.029 764.848L717.872 775.632L717.872 775.632L701.029 764.848ZM596.487 975.405H576.487V1006.91L604.995 993.505L596.487 975.405ZM616.487 965.88L625.205 983.879L625.205 983.879L616.487 965.88ZM726 865.33H746V864.838L745.976 864.346L726 865.33ZM721.307 770.019L741.283 769.035L741.283 769.035L721.307 770.019ZM718.5 713L738.476 712.016L698.5 713H718.5ZM437.003 433.73L456.995 434.294L457.01 433.771L456.997 433.249L437.003 433.73ZM475.077 211.606L476.23 191.639L476.23 191.639L475.077 211.606ZM521.897 214.311L523.051 194.344L523.05 194.344L521.897 214.311ZM527.862 215.161L523.394 234.655L523.395 234.655L527.862 215.161ZM552.734 220.861L557.203 201.366L557.202 201.366L552.734 220.861ZM553.17 220.971L558.51 201.697L558.508 201.696L553.17 220.971ZM567.613 224.973L562.272 244.247L562.272 244.247L567.613 224.973ZM516.101 451L514.505 470.936L515.302 471H516.101V451ZM515.703 450.968L517.298 431.032L517.297 431.032L515.703 450.968ZM478.203 447.968L479.797 428.032L479.795 428.032L478.203 447.968ZM477.981 447.95L475.5 467.796L475.943 467.851L476.388 467.887L477.981 447.95ZM445.76 443.923L443.279 463.768L443.279 463.768L445.76 443.923ZM480.019 428.05L477.539 447.895L477.981 447.95L478.424 447.986L480.019 428.05ZM457 425.172H437V442.828L454.519 445.018L457 425.172ZM516.899 431L515.304 450.936L516.101 451H516.899V431ZM574 431V451H594V431H574ZM562.272 244.247L567.613 224.973L567.613 224.973L562.272 244.247ZM548.047 240.305L553.387 221.031L552.953 220.911L552.514 220.81L548.047 240.305ZM523.395 234.655L518.927 254.15L518.927 254.15L523.395 234.655ZM520.743 234.277L521.897 214.311L521.897 214.311L520.743 234.277ZM473.923 231.572L472.769 251.539L472.769 251.539L473.923 231.572ZM837.162 173.531L855.375 165.267L818.467 180.637L837.162 173.531ZM831 -20H830.144V20H831V-20ZM838 -20H831V20H838V-20ZM855.96 -14.0306C850.953 -17.7751 844.707 -20 838 -20V20C835.78 20 833.676 19.2527 832.005 18.0033L855.96 -14.0306ZM871.174 3.20395C868.663 -1.97868 863.218 -10.9384 852.675 -16.026L835.291 19.9987C834.588 19.6599 834.345 19.3251 834.462 19.4631C834.515 19.5255 834.618 19.6582 834.756 19.8764C834.892 20.0933 835.035 20.3516 835.176 20.643L871.174 3.20395ZM877.536 26.3041C876.582 19.0042 874.801 10.6908 871.174 3.2041L835.176 20.6428C836.158 22.6712 837.186 26.2296 837.874 31.4893L877.536 26.3041ZM877.388 69.2371C879.031 53.7872 879.178 38.8631 877.536 26.304L837.874 31.4894C838.997 40.0783 839.026 51.7072 837.612 65.0078L877.388 69.2371ZM877.5 86.5V67.1225H837.5V86.5H877.5ZM877.5 115.5V86.5H837.5V115.5H877.5ZM873.989 159.012C876.337 143.181 877.5 125.208 877.5 115.5H837.5C837.5 123.126 836.5 139.135 834.422 153.142L873.989 159.012ZM868.728 182.938C871.188 175.536 872.836 166.78 873.989 159.012L834.422 153.142C833.376 160.193 832.127 166.239 830.769 170.325L868.728 182.938ZM862.29 196.367C865.61 191.554 867.562 186.449 868.728 182.938L830.769 170.325C830.452 171.279 830.152 172.059 829.87 172.682C829.583 173.318 829.396 173.608 829.364 173.654L862.29 196.367ZM834.5 211.5C850.905 211.5 859.765 200.027 862.29 196.367L829.364 173.654C829.377 173.634 829.429 173.561 829.53 173.45C829.628 173.343 829.848 173.119 830.219 172.851C830.602 172.575 831.189 172.223 831.98 171.943C832.801 171.652 833.672 171.5 834.5 171.5V211.5ZM808.744 201.447C816.996 209.37 826.911 211.5 834.5 211.5V171.5C834.282 171.5 834.435 171.466 834.85 171.609C835.337 171.776 835.939 172.105 836.448 172.593L808.744 201.447ZM797.805 180.923C798.809 185.787 801.302 194.301 808.744 201.447L836.448 172.593C836.671 172.808 836.842 173.02 836.965 173.198C837.085 173.371 837.144 173.492 837.161 173.529C837.177 173.564 837.159 173.53 837.121 173.407C837.082 173.284 837.034 173.1 836.98 172.839L797.805 180.923ZM797.528 179.47C797.612 179.95 797.704 180.434 797.805 180.921L836.98 172.841C836.961 172.746 836.941 172.642 836.921 172.53L797.528 179.47ZM816 196H817.224V156H816V196ZM796 170.378V176H836V170.378H796ZM796 150.7V170.378H836V150.7H796ZM763.298 115.577C780.337 115.577 796 130.261 796 150.7H836C836 109.53 803.765 75.5768 763.298 75.5768V115.577ZM763.158 115.577H763.298V75.5768H763.158V115.577ZM762.46 115.565L762.6 115.569L763.717 75.5846L763.577 75.5807L762.46 115.565ZM670.163 112.988L762.461 115.565L763.577 75.5807L671.279 73.0039L670.163 112.988ZM641.012 82.1628C640.549 98.7249 653.601 112.526 670.163 112.988L671.279 73.0039C676.8 73.158 681.15 77.7584 680.996 83.279L641.012 82.1628ZM671.837 53.0117C655.275 52.5493 641.474 65.6007 641.012 82.1628L680.996 83.279C680.842 88.7997 676.242 93.1502 670.721 92.9961L671.837 53.0117ZM764.001 55.5848L671.837 53.0117L670.721 92.9961L762.884 95.5692L764.001 55.5848ZM855.58 141.616C851.188 94.3378 812.57 55.6752 763.483 55.577L763.403 95.5769C790.391 95.6309 813.128 117.078 815.751 145.316L855.58 141.616ZM817.5 115.5C817.5 120.486 816.964 130.654 815.787 141.261L855.544 145.671C856.837 134.01 857.5 122.321 857.5 115.5H817.5ZM817.5 86.5V115.5H857.5V86.5H817.5ZM817.5 73.206V86.5H857.5V73.206H817.5ZM833.755 92.8732L834.654 93.0024L840.346 53.4096L839.448 53.2804L833.755 92.8732ZM817.623 63.8275C817.39 65.9169 817.118 68.0535 816.805 70.2301L856.398 75.9235C856.772 73.3267 857.097 70.7662 857.377 68.2494L817.623 63.8275ZM817.5 63V66.0385H857.5V63H817.5ZM837.816 43H837.5V83H837.816V43ZM818.042 34.0822C818.867 40.3911 819.006 49.7225 817.909 61.0759L857.723 64.9241C859.019 51.519 859.029 39.0234 857.705 28.8967L818.042 34.0822ZM817.177 29.3624C816.924 28.8419 817.025 28.9057 817.272 29.8611C817.499 30.7393 817.786 32.123 818.042 34.0821L857.705 28.8968C856.885 22.6232 855.481 16.6845 853.175 11.9234L817.177 29.3624ZM817.483 29.938C817.331 29.6716 817.231 29.474 817.177 29.3629L853.175 11.9229C852.866 11.2852 852.54 10.6642 852.195 10.062L817.483 29.938ZM831.856 40H834.839V0H831.856V40ZM821.597 42.0638L835.254 39.7092L828.458 0.290798L814.801 2.6454L821.597 42.0638ZM820.754 42.2092L821.597 42.0638L814.801 2.64539L813.958 2.79079L820.754 42.2092ZM816.5 42.5H817.356V2.5H816.5V42.5ZM786.752 42.5H816.5V2.5H786.752V42.5ZM728.511 45.4619L787.759 42.4746L785.745 2.52537L726.496 5.51269L728.511 45.4619ZM728.259 45.4746L728.511 45.4619L726.496 5.5127L726.245 5.52538L728.259 45.4746ZM727 45.5H727.252V5.5H727V45.5ZM587.5 45.5H727V5.5H587.5V45.5ZM578.112 43.996C581.09 44.9772 584.254 45.5 587.5 45.5V5.5C588.559 5.5 589.617 5.67174 590.626 6.00403L578.112 43.996ZM460.25 45H584.369V5H460.25V45ZM477 28.25C477 37.5008 469.501 45 460.25 45V5C447.409 5 437 15.4094 437 28.25H477ZM477 34.875V28.25H437V34.875H477ZM447 64.875C463.569 64.875 477 51.4435 477 34.875H437C437 29.3522 441.477 24.875 447 24.875V64.875ZM417 34.875C417 51.4435 430.431 64.875 447 64.875V24.875C452.523 24.875 457 29.3522 457 34.875H417ZM417 28.25V34.875H457V28.25H417ZM460.25 -15C436.364 -15 417 4.36368 417 28.25H457C457 26.4551 458.455 25 460.25 25V-15ZM607 -15H460.25V25H607V-15ZM627 5.5V5H587V5.5H627ZM726.748 -14.5H607V25.5H726.748V-14.5ZM784.989 -17.4619L725.741 -14.4746L727.755 25.4746L787.004 22.4873L784.989 -17.4619ZM785.241 -17.4746L784.989 -17.4619L787.004 22.4873L787.255 22.4746L785.241 -17.4746ZM786.5 -17.5H786.248V22.5H786.5V-17.5ZM815.644 -17.5H786.5V22.5H815.644V-17.5ZM825.903 -19.5638L812.246 -17.2092L819.042 22.2092L832.699 19.8546L825.903 -19.5638ZM826.746 -19.7092L825.903 -19.5638L832.699 19.8546L833.542 19.7092L826.746 -19.7092ZM839.423 0.601769C840.934 0.818978 842.494 1.28813 844.021 2.03523L826.441 37.9648C828.627 39.0344 831.074 39.8127 833.73 40.1946L839.423 0.601769ZM816.838 17.1537L816.78 17.5519L856.373 23.2445L856.43 22.8463L816.838 17.1537ZM835.231 40H836.634V0H835.231V40ZM132 312C132 253.912 165.243 198.387 224.913 156.18L201.813 123.524C134.715 170.986 92 237.478 92 312H132ZM254.111 486.17C176.403 442.839 132 378.938 132 312H92C92 398.053 148.871 473.285 234.63 521.105L254.111 486.17ZM252.767 529.645L261.838 513.378L226.902 493.897L217.831 510.164L252.767 529.645ZM255.133 517.332L255.132 517.322L215.467 522.488L215.468 522.498L255.133 517.332ZM237.858 539.751L237.865 539.75L232.736 500.08L232.729 500.081L237.858 539.751ZM252.098 530.846L252.761 529.656L217.825 510.176L217.162 511.365L252.098 530.846ZM224.064 538.112C224.339 538.266 224.614 538.419 224.888 538.573L244.371 503.638C244.123 503.5 243.875 503.361 243.627 503.222L224.064 538.112ZM223.229 537.642C223.506 537.799 223.785 537.956 224.066 538.113L243.626 503.221C243.377 503.082 243.126 502.941 242.875 502.799L223.229 537.642ZM40 770.852C40 652.507 125.743 555.523 235.84 540.026L230.264 500.416C100.012 518.75 0 632.989 0 770.852H40ZM266.637 1003.85C142.078 1003.65 40 900.06 40 770.852H0C0 921.267 119.098 1043.62 266.573 1043.85L266.637 1003.85ZM306.282 1000.62L265.014 1003.92L268.196 1043.79L309.465 1040.49L306.282 1000.62ZM338.117 995.895L304.964 1000.77L310.783 1040.35L343.936 1035.47L338.117 995.895ZM376.213 986.026L336.065 996.308L345.988 1035.06L386.137 1024.78L376.213 986.026ZM403.837 976.765L374.85 986.427L387.499 1024.37L416.486 1014.71L403.837 976.765ZM392.058 911.703L390.167 995.286L430.157 996.191L432.048 912.607L392.058 911.703ZM377.728 938.541L415.538 931.849L408.567 892.461L370.757 899.153L377.728 938.541ZM377.213 938.632L377.728 938.541L370.758 899.153L370.243 899.244L377.213 938.632ZM374.618 938.925L375.14 938.888L372.316 898.988L371.794 899.025L374.618 938.925ZM319.412 942.833L374.619 938.925L371.794 899.025L316.588 902.933L319.412 942.833ZM338 923V922.883H298V923H338ZM317.755 943L317.99 943L318.01 903L317.775 903L317.755 943ZM317.28 942.999C317.429 942.999 317.583 943 317.738 943L317.791 903C317.671 903 317.547 903 317.421 902.999L317.28 942.999ZM316.202 942.992C316.559 942.995 316.917 942.997 317.274 942.999L317.426 902.999C317.139 902.998 316.853 902.996 316.566 902.994L316.202 942.992ZM316.193 943C316.512 942.998 316.837 942.99 317.168 942.977L315.601 903.008C315.714 903.004 315.821 903.001 315.923 903.001L316.193 943ZM316.056 943L316.127 943L315.989 903L315.918 903.001L316.056 943ZM315.727 942.999C315.814 943 315.901 943 315.987 943V903C316.019 903 316.051 903.001 316.083 903.001L315.727 942.999ZM315.332 942.993C315.469 942.996 315.605 942.998 315.741 942.999L316.069 903.001C316.116 903.001 316.163 903.002 316.21 903.003L315.332 942.993ZM314.079 942.94C314.502 942.967 314.924 942.985 315.344 942.993L316.199 903.003C316.339 903.006 316.482 903.012 316.628 903.021L314.079 942.94ZM137.232 775.503C137.907 869.472 219.346 941.541 315.053 942.978L315.654 902.983C238.488 901.824 177.728 844.372 177.231 775.215L137.232 775.503ZM158.744 690.166C141.826 716.484 131.58 748.161 137.598 779.17L176.865 771.548C173.456 753.981 178.888 732.802 192.392 711.796L158.744 690.166ZM233.892 621.201C202.477 638.576 176.168 663.061 158.744 690.166L192.392 711.796C206 690.626 227.243 670.588 253.251 656.204L233.892 621.201ZM464.531 641.407C384.881 578.846 297.487 586.029 233.892 621.201L253.251 656.204C305.017 627.574 374.711 621.722 439.823 672.864L464.531 641.407ZM467.741 669.699L467.906 669.489L436.448 644.782L436.284 644.991L467.741 669.699ZM477 666C477 654.886 470.946 645.21 462.052 640.048L441.973 674.643C439.043 672.942 437 669.721 437 666H477ZM477 849V666H437V849H477ZM477 1032V849H437V1032H477ZM419.503 1091.9C450.676 1090.15 477 1064.88 477 1032H437C437 1042.32 428.608 1051.33 417.255 1051.96L419.503 1091.9ZM438.285 1070L438.283 1069.98L398.474 1073.89L398.476 1073.91L438.285 1070ZM409.611 1092.91L420.326 1091.86L416.435 1052.05L405.719 1053.09L409.611 1092.91ZM639.271 1053H407.665V1093H639.271V1053ZM622.414 1091.96L637.989 1092.96L640.554 1053.04L624.98 1052.04L622.414 1091.96ZM623.812 1052C610.356 1051.92 599.38 1043.51 595.523 1032.25L557.681 1045.21C567.076 1072.64 593.194 1091.82 623.582 1092L623.812 1052ZM554 1032C554 1039.76 556.973 1046.87 561.81 1052.19L591.394 1025.27C592.997 1027.03 594 1029.42 594 1032H554ZM554 1023V1032H594V1023H554ZM554 849V1023H594V849H554ZM554 631V849H594V631H554ZM564.37 608.313C558.049 613.784 554 621.93 554 631H594C594 634.026 592.631 636.755 590.548 638.558L564.37 608.313ZM561.633 635.668L561.832 635.918L593.086 610.954L592.886 610.704L561.633 635.668ZM756.31 531.965C698.593 542.57 630.869 554.775 564.778 607.559L589.741 638.814C647.201 592.923 705.713 581.932 763.538 571.307L756.31 531.965ZM756.637 531.908L756.636 531.908L763.212 571.364L763.213 571.364L756.637 531.908ZM756.638 531.908L756.637 531.908L763.213 571.364L763.214 571.363L756.638 531.908ZM789.395 525.599C778.738 527.843 767.781 529.857 756.312 531.965L763.541 571.306C774.916 569.216 786.387 567.109 797.636 564.741L789.395 525.599ZM648.871 490.49C710.263 488.381 745.153 518.858 778.228 558.066L808.802 532.274C773.005 489.84 727.41 447.769 647.498 450.514L648.871 490.49ZM613.808 492.554C627.135 491.636 638.729 490.839 648.871 490.49L647.498 450.514C636.526 450.891 624.187 451.744 611.057 452.649L613.808 492.554ZM409.42 485.477C491.639 501.04 563.103 496.05 613.808 492.554L611.057 452.649C560.435 456.139 493.541 460.689 416.86 446.174L409.42 485.477ZM393.499 462.054L393.49 462.103L432.791 469.548L432.8 469.499L393.499 462.054ZM285.366 433.882C317.91 459.147 361.402 477.006 409.694 485.476L416.604 446.077C373.344 438.49 336.281 422.769 309.895 402.286L285.366 433.882ZM227 327.535C227 370.833 251.324 407.455 285.366 433.882L309.895 402.286C282.187 380.776 267 354.705 267 327.535H227ZM305.181 207.529C260.813 234.707 227 276.272 227 327.535H267C267 295.467 288.25 264.808 326.074 241.639L305.181 207.529ZM472.893 164.006C408.895 164.349 349.591 180.326 305.181 207.529L326.074 241.639C363.3 218.836 415.198 204.315 473.107 204.005L472.893 164.006ZM453 184V184.005H493V184H453ZM473.203 164L473.006 164L472.994 204L473.19 204L473.203 164ZM473.558 164L473.217 164L473.176 204L473.517 204L473.558 164ZM474.04 164.001C473.882 164.001 473.725 164.001 473.569 164L473.507 204C473.647 204.001 473.786 204.001 473.924 204.001L474.04 164.001ZM475 164C474.643 164 474.285 164 473.927 164.001L474.037 204.001C474.358 204 474.679 204 475 204V164ZM495 184.006V184H455V184.006H495ZM649.571 217.182C606.97 183.993 543.623 164.4 475.115 164.006L474.885 204.005C536.748 204.362 590.895 222.176 624.988 248.736L649.571 217.182ZM662.716 246.117C664.564 232.779 657.348 220.327 645.831 214.879L628.728 251.039C624.9 249.228 622.476 245.094 623.095 240.628L662.716 246.117ZM644.025 381.017L662.716 246.117L623.095 240.628L604.404 375.527L644.025 381.017ZM630.857 348.949L612.59 361.997L635.839 394.547L654.107 381.499L630.857 348.949ZM624.223 373.391L624.356 373.677L660.607 356.77L660.474 356.484L624.223 373.391ZM634.256 346.643L633.883 346.817L650.814 383.057L651.187 382.883L634.256 346.643ZM634.734 346.419C634.57 346.496 634.407 346.572 634.245 346.648L651.198 382.878C651.384 382.791 651.568 382.704 651.752 382.618L634.734 346.419ZM635.379 346.115C635.163 346.217 634.948 346.318 634.734 346.419L651.752 382.618C651.998 382.503 652.242 382.387 652.485 382.272L635.379 346.115ZM640.618 343.842C637.882 344.69 635.241 345.94 632.787 347.587L655.077 380.8C654.271 381.341 653.388 381.761 652.462 382.049L640.618 343.842ZM731 234.514C731 273.108 700.497 314.597 637.823 344.945L655.256 380.946C723.944 347.687 771 295.52 771 234.514H731ZM657.855 134.811C707.412 164.135 731 200.365 731 234.514H771C771 180.549 734.104 133.451 678.224 100.387L657.855 134.811ZM461.72 87.0005C539.84 87.1157 609.093 105.958 657.855 134.811L678.224 100.387C622.314 67.3036 545.79 47.1244 461.779 47.0006L461.72 87.0005ZM224.913 156.18C284.36 114.129 367.988 87.1384 461.778 87.0005L461.72 47.0006C360.656 47.1491 268.758 76.1702 201.813 123.524L224.913 156.18ZM614 1023V849H574V1023H614ZM614 849V635.475H574V849H614ZM606.193 651.329C658 611.483 708.824 601.87 764.356 591.615L757.093 552.28C701.713 562.506 642.037 573.299 581.807 619.622L606.193 651.329ZM764.356 591.615C781.33 588.48 798.925 585.236 816.649 580.977L807.303 542.084C790.783 546.053 774.229 549.115 757.093 552.28L764.356 591.615ZM812.48 581.524C818.857 581.363 825.266 579.162 830.592 574.852L805.426 543.76C807.19 542.332 809.347 541.59 811.473 541.537L812.48 581.524ZM830.592 574.852C843.47 564.428 845.46 545.537 835.036 532.659L803.944 557.825C800.47 553.532 801.133 547.235 805.426 543.76L830.592 574.852ZM835.036 532.659C797.239 485.962 745.295 427.143 646.811 430.526L648.185 470.502C726.073 467.826 767.004 512.185 803.944 557.825L835.036 532.659ZM646.811 430.526C635.043 430.93 622.127 431.817 608.556 432.747L611.29 472.653C625.039 471.711 637.231 470.878 648.185 470.502L646.811 430.526ZM607.933 432.799L607.932 432.799L611.912 472.601L611.913 472.601L607.933 432.799ZM608.555 432.747C559.293 436.122 497.779 440.278 426.383 427.588L419.383 466.971C496.081 480.604 561.963 476.033 611.289 472.653L608.555 432.747ZM442.647 450.343L442.672 450.181L403.144 444.054L403.119 444.216L442.647 450.343ZM425.97 427.354C382.657 420.643 346.62 405.477 322.159 386.487L297.63 418.084C328.524 442.067 371.304 459.361 419.846 466.882L425.97 427.354ZM322.159 386.487C297.654 367.464 287 346.675 287 327.535H247C247 362.756 266.742 394.105 297.63 418.084L322.159 386.487ZM287 327.535C287 305.012 302.032 279.82 336.521 258.694L315.627 224.584C274.508 249.772 247 285.89 247 327.535H287ZM336.521 258.694C370.331 237.984 418.846 224.16 474.039 224.001L473.924 184.002C412.613 184.178 356.654 199.453 315.627 224.584L336.521 258.694ZM473.922 224.001C531.25 224.173 580.099 240.264 610.335 262.717L634.183 230.604C595.657 201.994 537.952 184.192 474.041 184.002L473.922 224.001ZM602.448 243.916L580.284 403.883L619.905 409.372L642.069 249.405L602.448 243.916ZM580.284 403.883C579.593 408.872 580.179 413.801 581.814 418.281L619.389 404.563C619.94 406.074 620.133 407.733 619.905 409.372L580.284 403.883ZM580.804 414.262C581.846 421.522 585.568 428.473 591.759 433.426L616.747 402.191C618.806 403.838 620.054 406.177 620.399 408.582L580.804 414.262ZM591.759 433.426C604.697 443.776 623.576 441.679 633.926 428.741L602.691 403.753C606.141 399.441 612.434 398.741 616.747 402.191L591.759 433.426ZM633.926 428.741L651.059 407.325L619.824 382.337L602.691 403.753L633.926 428.741ZM647.066 411.105L665.727 397.776L642.477 365.227L623.817 378.556L647.066 411.105ZM662.753 399.534C735.061 364.843 791 307.164 791 234.514H751C751 284.554 711.875 331.602 645.451 363.47L662.753 399.534ZM791 234.514C791 170.596 747.394 118.076 688.409 83.1741L668.04 117.599C720.775 148.803 751 190.471 751 234.514H791ZM688.409 83.1741C629.095 48.0769 549.224 27.2486 462.557 27.0022L462.443 67.0021C543.236 67.2317 615.856 86.7213 668.04 117.599L688.409 83.1741ZM482.5 47.0021V47H442.5V47.0021H482.5ZM462.493 27L462.12 27.0001L462.134 67.0001L462.507 67L462.493 27ZM462.106 27.0001L461.728 27.0005L461.77 67.0005L462.148 67.0001L462.106 27.0001ZM461.777 27.0006C461.518 27.0002 461.259 27 461 27V67C461.24 67 461.48 67.0002 461.72 67.0005L461.777 27.0006ZM441 47V47.0021H481V47H441ZM460.943 27.0022C356.534 27.2975 260.79 57.309 190.264 107.196L213.363 139.852C276.408 95.2571 363.903 67.2768 461.057 67.002L460.943 27.0022ZM190.264 107.196C119.47 157.272 72 229.243 72 312H112C112 245.701 149.973 184.691 213.363 139.852L190.264 107.196ZM72 312C72 397.209 122.232 470.852 196.563 521.157L218.982 488.03C152.184 442.824 112 380.239 112 312H72ZM203.261 485.109C74.9988 514.806 -20 631.833 -20 770.852H20C20 650.253 102.347 549.532 212.284 524.078L203.261 485.109ZM-20 770.852C-20 932.01 107.841 1063.85 267 1063.85V1023.85C130.807 1023.85 20 910.804 20 770.852H-20ZM267 1063.85H267.398V1023.85H267V1063.85ZM268.992 1063.79L269.389 1063.76L266.202 1023.88L265.805 1023.92L268.992 1063.79ZM269.387 1063.76L311.387 1060.4L308.204 1020.53L266.204 1023.88L269.387 1063.76ZM311.384 1060.41L311.715 1060.38L308.538 1020.51L308.207 1020.53L311.384 1060.41ZM313.039 1060.23L313.367 1060.18L307.543 1020.61L307.214 1020.66L313.039 1060.23ZM313.365 1060.18L347.365 1055.18L341.545 1015.61L307.545 1020.61L313.365 1060.18ZM347.362 1055.18L347.881 1055.1L342.066 1015.53L341.547 1015.61L347.362 1055.18ZM349.936 1054.69L350.443 1054.56L340.518 1015.81L340.011 1015.94L349.936 1054.69ZM350.443 1054.56L391.443 1044.06L381.519 1005.31L340.519 1015.81L350.443 1054.56ZM391.447 1044.06L391.792 1043.97L381.859 1005.23L381.514 1005.31L391.447 1044.06ZM393.146 1043.57L393.483 1043.46L380.841 1005.51L380.504 1005.62L393.146 1043.57ZM393.487 1043.46L429.487 1031.46L416.838 993.513L380.838 1005.51L393.487 1043.46ZM429.487 1031.46L436.163 1029.24L423.514 991.288L416.838 993.513L429.487 1031.46ZM449.833 1010.71L449.992 1003.68L410.003 1002.77L409.843 1009.81L449.833 1010.71ZM449.992 1003.68L452.136 908.948L412.146 908.043L410.003 1002.77L449.992 1003.68ZM438.397 927.492C444.396 925.516 449.428 921.765 453.002 916.997L420.998 893.003C422.177 891.43 423.86 890.166 425.884 889.499L438.397 927.492ZM417 905V1032H457V905H417ZM417 1032C417 1031.84 417.037 1031.72 417.064 1031.65C417.086 1031.6 417.086 1031.63 417.023 1031.69C416.963 1031.75 416.864 1031.82 416.719 1031.88C416.588 1031.93 416.363 1032 416 1032V1072C438.425 1072 457 1054.31 457 1032H417ZM396 1052V1052.09H436V1052H396ZM414.054 1032.18L385.603 1034.97L389.494 1074.78L417.946 1072L414.054 1032.18ZM385.603 1034.97C380.488 1035.47 375.522 1036.97 370.988 1039.39L389.827 1074.68C389.724 1074.73 389.61 1074.76 389.494 1074.78L385.603 1034.97ZM370.989 1039.39C335.08 1058.56 348.701 1113 389.408 1113V1073C389.179 1073 389.217 1072.97 389.423 1073.04C389.623 1073.11 389.828 1073.23 389.998 1073.38C390.306 1073.63 390.299 1073.78 390.271 1073.67C390.244 1073.56 390.32 1073.69 390.171 1074.07C390.088 1074.27 389.963 1074.47 389.821 1074.63C389.674 1074.79 389.625 1074.78 389.827 1074.68L370.989 1039.39ZM389.408 1113H675.502V1073H389.408V1113ZM675.502 1113C713.659 1113 728.939 1063.73 697.476 1042.14L674.844 1075.12C674.957 1075.2 674.883 1075.17 674.75 1074.99C674.62 1074.81 674.514 1074.6 674.448 1074.39C674.385 1074.19 674.374 1074.04 674.374 1073.96C674.375 1073.88 674.386 1073.84 674.391 1073.82C674.397 1073.8 674.411 1073.76 674.455 1073.7C674.503 1073.63 674.598 1073.51 674.763 1073.38C674.937 1073.24 675.143 1073.13 675.349 1073.06C675.561 1072.98 675.639 1073 675.502 1073V1113ZM697.476 1042.14C691.706 1038.18 684.975 1035.85 677.993 1035.41L675.427 1075.32C675.219 1075.31 675.017 1075.24 674.844 1075.12L697.476 1042.14ZM677.993 1035.41L625.955 1032.06L623.39 1071.98L675.428 1075.32L677.993 1035.41ZM604.713 1050.74L604.041 1061.2L643.959 1063.76L644.631 1053.3L604.713 1050.74ZM604 1052V1062.48H644V1052H604ZM574 1023C574 1050.22 596.313 1072 624 1072V1032C617.681 1032 614 1027.41 614 1023H574ZM317.263 922.936L372.685 919.012L369.86 879.112L314.438 883.035L317.263 922.936ZM157.228 774.344C157.228 856.418 228.664 921.803 315.579 922.984L316.122 882.987C247.97 882.062 197.228 831.55 197.228 774.344H157.228ZM157.228 773.308V774.344H197.228V773.308H157.228ZM157.441 776.393L157.653 777.407L196.804 769.21L196.592 768.196L157.441 776.393ZM175.568 700.981C160.134 724.989 152.298 751.831 157.44 776.393L196.592 768.196C194.314 757.316 197.253 741.218 209.215 722.611L175.568 700.981ZM243.571 638.703C214.86 654.582 191.084 676.844 175.568 700.981L209.215 722.611C220.917 704.408 239.627 686.594 262.93 673.706L243.571 638.703ZM449.09 654.752C377.526 600.45 300.398 607.274 243.571 638.703L262.93 673.706C308.124 648.711 367.865 643.331 424.91 686.617L449.09 654.752ZM457 849V670.684H417V849H457ZM457 892.996V849H417V892.996H457ZM430.743 908.847C426.877 909.531 423.172 907.885 421.013 905.014L452.987 880.979C446.445 872.276 435.313 867.416 423.772 869.459L430.743 908.847ZM374.758 918.756L430.743 908.847L423.772 869.459L367.786 879.368L374.758 918.756ZM636.487 943.61V862.437H596.487V943.61H636.487ZM665.124 892.326C651.212 902.867 632.083 913.58 607.617 925.685L625.356 961.536C650.288 949.201 672.226 937.131 689.282 924.206L665.124 892.326ZM685.999 865.516C685.947 869.685 683.991 878.029 665.124 892.326L689.282 924.206C712.11 906.908 725.715 888.391 725.996 866.017L685.999 865.516ZM682.596 797.186L686.021 866.75L725.973 864.783L722.548 795.219L682.596 797.186ZM715.637 811.676C716.369 810.84 717.094 809.999 717.812 809.155L687.333 783.25C686.739 783.949 686.139 784.645 685.532 785.339L715.637 811.676ZM625.659 880.21C662.017 861.446 692.852 837.721 715.637 811.676L685.532 785.339C666.471 807.126 639.809 827.895 607.314 844.664L625.659 880.21ZM604.994 868.1C655.428 844.394 695.264 810.943 717.872 775.632L684.185 754.064C666.515 781.662 633.214 810.637 587.979 831.9L604.994 868.1ZM616.487 953.286V850H576.487V953.286H616.487ZM616.487 975.405V953.286H576.487V975.405H616.487ZM607.768 947.88C601.379 950.974 594.779 954.109 587.979 957.305L604.995 993.505C611.881 990.268 618.631 987.063 625.205 983.879L607.768 947.88ZM706 865.33C706 877.549 699.645 889.803 682.576 904.006C665.294 918.384 639.898 932.317 607.768 947.88L625.205 983.879C657.406 968.282 686.767 952.553 708.159 934.754C729.764 916.779 746 894.339 746 865.33H706ZM701.332 771.002L706.024 866.313L745.976 864.346L741.283 769.035L701.332 771.002ZM698.524 713.984L701.332 771.002L741.283 769.035L738.476 712.016L698.524 713.984ZM717.872 775.632C730.599 755.755 738.5 734.255 738.5 713H698.5C698.5 724.442 694.139 738.517 684.185 754.064L717.872 775.632ZM417 433.486C417 433.727 417.003 433.969 417.009 434.211L456.997 433.249C456.999 433.329 457 433.408 457 433.486H417ZM417 365.418V433.486H457V365.418H417ZM417 247.546V365.418H457V247.546H417ZM476.23 191.639C444.086 189.782 417 215.348 417 247.546H457C457 238.346 464.739 231.042 473.923 231.572L476.23 191.639ZM523.05 194.344L476.23 191.639L473.923 231.572L520.743 234.277L523.05 194.344ZM532.33 195.666C529.279 194.967 526.175 194.525 523.051 194.344L520.743 234.277C521.636 234.329 522.523 234.455 523.394 234.655L532.33 195.666ZM557.202 201.366L532.33 195.666L523.395 234.655L548.266 240.355L557.202 201.366ZM558.508 201.696C558.076 201.577 557.641 201.467 557.203 201.366L548.265 240.355C548.119 240.322 547.975 240.285 547.833 240.246L558.508 201.696ZM572.953 205.699L558.51 201.697L547.83 240.245L562.272 244.247L572.953 205.699ZM614 259.666C614 234.496 597.208 212.419 572.953 205.699L562.272 244.247C569.202 246.167 574 252.474 574 259.666H614ZM614 365.418V259.666H574V365.418H614ZM614 441V365.418H574V441H614ZM584 471C600.568 471 614 457.569 614 441H574C574 435.477 578.477 431 584 431V471ZM516.5 471H584V431H516.5V471ZM516.101 471H516.5V431H516.101V471ZM514.107 470.904L514.505 470.936L517.696 431.064L517.298 431.032L514.107 470.904ZM476.608 467.904L514.108 470.904L517.297 431.032L479.797 428.032L476.608 467.904ZM476.388 467.887L476.61 467.905L479.795 428.032L479.573 428.014L476.388 467.887ZM475.279 467.768L475.5 467.796L480.461 428.105L480.24 428.077L475.279 467.768ZM443.279 463.768L475.279 467.768L480.24 428.077L448.24 424.077L443.279 463.768ZM417.011 433.167C416.58 448.452 427.803 461.834 443.279 463.768L448.24 424.077C453.407 424.723 457.139 429.184 456.995 434.294L417.011 433.167ZM482.5 408.204L459.481 405.327L454.519 445.018L477.539 447.895L482.5 408.204ZM518.494 411.064L481.614 408.113L478.424 447.986L515.304 450.936L518.494 411.064ZM574 411H516.899V451H574V411ZM554 365.418V431H594V365.418H554ZM554 259.666V365.418H594V259.666H554ZM556.932 263.52C555.199 263.04 554 261.463 554 259.666H594C594 243.485 583.205 229.293 567.613 224.973L556.932 263.52ZM542.706 259.579L556.932 263.52L567.613 224.973L553.387 221.031L542.706 259.579ZM518.927 254.15L543.579 259.8L552.514 220.81L527.862 215.161L518.927 254.15ZM519.589 254.244C519.366 254.231 519.145 254.2 518.927 254.15L527.862 215.161C525.901 214.711 523.906 214.427 521.897 214.311L519.589 254.244ZM472.769 251.539L519.589 254.244L521.897 214.311L475.077 211.606L472.769 251.539ZM477 247.546C477 249.845 475.065 251.672 472.769 251.539L475.077 211.606C454.412 210.412 437 226.847 437 247.546H477ZM477 365.418V247.546H437V365.418H477ZM477 425.172V365.418H437V425.172H477ZM818.949 181.794C818.868 181.615 818.757 181.365 818.634 181.061C818.582 180.933 818.469 180.65 818.339 180.285C818.289 180.147 818.134 179.711 817.968 179.141C817.903 178.916 817.698 178.208 817.523 177.282C817.444 176.865 817.26 175.844 817.196 174.524C817.164 173.861 817.139 172.696 817.306 171.255C817.445 170.051 817.87 167.179 819.615 163.98L854.731 183.134C856.476 179.935 856.9 177.062 857.04 175.859C857.207 174.418 857.181 173.252 857.149 172.59C857.085 171.27 856.902 170.248 856.823 169.831C856.647 168.905 856.443 168.197 856.377 167.972C856.211 167.402 856.056 166.964 856.006 166.825C855.874 166.457 855.76 166.171 855.706 166.039C855.58 165.726 855.464 165.463 855.375 165.267L818.949 181.794ZM819.615 163.98C821.608 160.325 825.85 155.514 833.022 153.992C839.363 152.647 844.286 154.72 846.359 155.791C850.189 157.772 852.351 160.53 852.551 160.77C853.708 162.162 854.414 163.419 854.491 163.553C854.897 164.256 855.17 164.832 855.222 164.941C855.408 165.332 855.54 165.642 855.587 165.752C855.709 166.042 855.801 166.278 855.857 166.424L818.467 180.637C818.53 180.802 818.627 181.051 818.753 181.35C818.801 181.463 818.935 181.777 819.122 182.17C819.175 182.28 819.448 182.857 819.854 183.56C819.932 183.694 820.637 184.952 821.794 186.344C821.994 186.584 824.157 189.342 827.987 191.322C830.059 192.394 834.982 194.467 841.323 193.121C848.495 191.6 852.737 186.788 854.731 183.134L819.615 163.98Z" fill="#176B87" mask="url(#path-1-inside-1_41_101)"/>
</svg>
